<svg xmlns="http://www.w3.org/2000/svg" version="1.1" xmlns:xlink="http://www.w3.org/1999/xlink" width="200" height="200"><svg xmlns="http://www.w3.org/2000/svg" version="1.1" xmlns:xlink="http://www.w3.org/1999/xlink" viewBox="0 0 200 200"><rect width="200" height="200" fill="url('#gradient')"></rect><defs><linearGradient id="SvgjsLinearGradient1001" gradientTransform="rotate(45 0.5 0.5)"><stop offset="0%" stop-color="#445272"></stop><stop offset="100%" stop-color="#445272"></stop></linearGradient></defs><g><g fill="#ee9044" transform="matrix(1.4042068564787915,0,0,1.4042068564787915,40.71068604101835,110.40037822679058)" stroke="#c8512e" stroke-width="0"><path d="M10.11-14.22L12.09-5.30L13.72-14.22L17.12-14.22L14.10 0L10.55 0L8.64-8.11L6.78 0L3.23 0L0.21-14.22L3.61-14.22L5.24-5.30L7.20-14.22L10.11-14.22ZM21.78-10.57L21.78 0L18.48 0L18.48-10.57L21.78-10.57ZM18.28-13.29L18.28-13.29Q18.28-13.99 18.79-14.44Q19.30-14.89 20.11-14.89Q20.92-14.89 21.43-14.44Q21.93-13.99 21.93-13.29Q21.93-12.59 21.43-12.14Q20.92-11.69 20.11-11.69Q19.30-11.69 18.79-12.14Q18.28-12.59 18.28-13.29ZM30.35 0L28.05-3.94L27.12-3.01L27.12 0L23.83 0L23.83-15.01L27.12-15.01L27.12-7.04L27.45-7.48L29.93-10.57L33.88-10.57L30.18-6.22L34.12 0L30.35 0ZM38.21-10.57L38.21 0L34.91 0L34.91-10.57L38.21-10.57ZM34.72-13.29L34.72-13.29Q34.72-13.99 35.22-14.44Q35.73-14.89 36.54-14.89Q37.35-14.89 37.86-14.44Q38.37-13.99 38.37-13.29Q38.37-12.59 37.86-12.14Q37.35-11.69 36.54-11.69Q35.73-11.69 35.22-12.14Q34.72-12.59 34.72-13.29ZM48.18 0L45.67-5.02L43.82-5.02L43.82 0L40.39 0L40.39-14.22L45.99-14.22Q48.52-14.22 49.94-13.10Q51.37-11.97 51.37-9.92L51.37-9.92Q51.37-8.44 50.77-7.46Q50.17-6.48 48.89-5.88L48.89-5.88L51.86-0.15L51.86 0L48.18 0ZM43.82-11.57L43.82-7.67L45.99-7.67Q46.96-7.67 47.46-8.18Q47.95-8.69 47.95-9.61Q47.95-10.53 47.45-11.05Q46.95-11.57 45.99-11.57L45.99-11.57L43.82-11.57ZM52.88-4.82L52.87-5.38Q52.87-6.96 53.49-8.20Q54.10-9.43 55.25-10.10Q56.41-10.76 57.96-10.76L57.96-10.76Q60.33-10.76 61.70-9.29Q63.07-7.82 63.07-5.29L63.07-5.29L63.07-5.18Q63.07-2.71 61.69-1.25Q60.32 0.20 57.98 0.20L57.98 0.20Q55.72 0.20 54.36-1.16Q52.99-2.51 52.88-4.82L52.88-4.82ZM56.17-5.77L56.16-5.18Q56.16-3.71 56.62-3.03Q57.08-2.34 57.98-2.34L57.98-2.34Q59.74-2.34 59.78-5.05L59.78-5.05L59.78-5.38Q59.78-8.22 57.96-8.22L57.96-8.22Q56.31-8.22 56.17-5.77L56.17-5.77ZM67.99-15L67.99 0L64.69 0L64.69-15L67.99-15ZM73.49-15L73.49 0L70.19 0L70.19-15L73.49-15ZM81.04-2.97L81.04-2.97Q81.04-3.39 80.61-3.64Q80.17-3.90 78.94-4.17Q77.71-4.44 76.90-4.89Q76.10-5.33 75.68-5.97Q75.26-6.60 75.26-7.42L75.26-7.42Q75.26-8.88 76.46-9.82Q77.67-10.76 79.61-10.76L79.61-10.76Q81.70-10.76 82.97-9.81Q84.24-8.87 84.24-7.32L84.24-7.32L80.94-7.32Q80.94-8.59 79.60-8.59L79.60-8.59Q79.08-8.59 78.73-8.31Q78.38-8.02 78.38-7.59L78.38-7.59Q78.38-7.15 78.81-6.88Q79.24-6.60 80.18-6.43Q81.12-6.25 81.84-6.01L81.84-6.01Q84.22-5.19 84.22-3.07L84.22-3.07Q84.22-1.62 82.93-0.71Q81.65 0.20 79.61 0.20L79.61 0.20Q78.25 0.20 77.19-0.29Q76.12-0.78 75.53-1.62Q74.93-2.46 74.93-3.39L74.93-3.39L78.01-3.39Q78.03-2.66 78.50-2.32Q78.96-1.98 79.70-1.98L79.70-1.98Q80.37-1.98 80.71-2.26Q81.04-2.53 81.04-2.97Z"></path></g></g></svg><style>@media (prefers-color-scheme: light) { :root { filter: none; } }
@media (prefers-color-scheme: dark) { :root { filter: none; } }
</style></svg>